<svg width="50" height="50" viewBox="0 0 50 50" fill="none" xmlns="http://www.w3.org/2000/svg">
<path d="M35.4167 18.75V14.5833C35.4167 13.4783 34.9777 12.4184 34.1963 11.637C33.4149 10.8556 32.3551 10.4167 31.25 10.4167H10.4167C9.3116 10.4167 8.25179 10.8556 7.47039 11.637C6.68899 12.4184 6.25 13.4783 6.25 14.5833V27.0833C6.25 28.1884 6.68899 29.2482 7.47039 30.0296C8.25179 30.811 9.3116 31.25 10.4167 31.25H14.5833M18.75 39.5833H39.5833C40.6884 39.5833 41.7482 39.1443 42.5296 38.3629C43.311 37.5815 43.75 36.5217 43.75 35.4167V22.9167C43.75 21.8116 43.311 20.7518 42.5296 19.9704C41.7482 19.189 40.6884 18.75 39.5833 18.75H18.75C17.6449 18.75 16.5851 19.189 15.8037 19.9704C15.0223 20.7518 14.5833 21.8116 14.5833 22.9167V35.4167C14.5833 36.5217 15.0223 37.5815 15.8037 38.3629C16.5851 39.1443 17.6449 39.5833 18.75 39.5833ZM33.3333 29.1667C33.3333 30.2717 32.8943 31.3315 32.1129 32.1129C31.3315 32.8943 30.2717 33.3333 29.1667 33.3333C28.0616 33.3333 27.0018 32.8943 26.2204 32.1129C25.439 31.3315 25 30.2717 25 29.1667C25 28.0616 25.439 27.0018 26.2204 26.2204C27.0018 25.439 28.0616 25 29.1667 25C30.2717 25 31.3315 25.439 32.1129 26.2204C32.8943 27.0018 33.3333 28.0616 33.3333 29.1667Z" stroke="#005FF9" stroke-width="4" stroke-linecap="round" stroke-linejoin="round"/>
</svg>
