<svg width="50" height="50" viewBox="0 0 50 50" fill="none" xmlns="http://www.w3.org/2000/svg">
<path d="M18.75 10.4167H14.5834C13.4783 10.4167 12.4185 10.8557 11.6371 11.6371C10.8557 12.4185 10.4167 13.4783 10.4167 14.5833V39.5833C10.4167 40.6884 10.8557 41.7482 11.6371 42.5296C12.4185 43.311 13.4783 43.75 14.5834 43.75H35.4167C36.5218 43.75 37.5816 43.311 38.363 42.5296C39.1444 41.7482 39.5834 40.6884 39.5834 39.5833V14.5833C39.5834 13.4783 39.1444 12.4185 38.363 11.6371C37.5816 10.8557 36.5218 10.4167 35.4167 10.4167H31.25M18.75 10.4167C18.75 11.5217 19.189 12.5815 19.9704 13.3629C20.7518 14.1443 21.8116 14.5833 22.9167 14.5833H27.0834C28.1884 14.5833 29.2482 14.1443 30.0296 13.3629C30.811 12.5815 31.25 11.5217 31.25 10.4167M18.75 10.4167C18.75 9.3116 19.189 8.25179 19.9704 7.47039C20.7518 6.68899 21.8116 6.25 22.9167 6.25H27.0834C28.1884 6.25 29.2482 6.68899 30.0296 7.47039C30.811 8.25179 31.25 9.3116 31.25 10.4167M25 25H31.25M25 33.3333H31.25M18.75 25H18.7709M18.75 33.3333H18.7709" stroke="#005FF9" stroke-width="4" stroke-linecap="round" stroke-linejoin="round"/>
</svg>
