<svg width="50" height="50" viewBox="0 0 50 50" fill="none" xmlns="http://www.w3.org/2000/svg">
<path fill-rule="evenodd" clip-rule="evenodd" d="M45 25C45 30.3043 42.8929 35.3914 39.1421 39.1421C35.3914 42.8929 30.3043 45 25 45C19.6957 45 14.6086 42.8929 10.8579 39.1421C7.10714 35.3914 5 30.3043 5 25C5 19.6957 7.10714 14.6086 10.8579 10.8579C14.6086 7.10714 19.6957 5 25 5C30.3043 5 35.3914 7.10714 39.1421 10.8579C42.8929 14.6086 45 19.6957 45 25V25ZM27.5 35C27.5 35.663 27.2366 36.2989 26.7678 36.7678C26.2989 37.2366 25.663 37.5 25 37.5C24.337 37.5 23.7011 37.2366 23.2322 36.7678C22.7634 36.2989 22.5 35.663 22.5 35C22.5 34.337 22.7634 33.7011 23.2322 33.2322C23.7011 32.7634 24.337 32.5 25 32.5C25.663 32.5 26.2989 32.7634 26.7678 33.2322C27.2366 33.7011 27.5 34.337 27.5 35V35ZM25 12.5C24.337 12.5 23.7011 12.7634 23.2322 13.2322C22.7634 13.7011 22.5 14.337 22.5 15V25C22.5 25.663 22.7634 26.2989 23.2322 26.7678C23.7011 27.2366 24.337 27.5 25 27.5C25.663 27.5 26.2989 27.2366 26.7678 26.7678C27.2366 26.2989 27.5 25.663 27.5 25V15C27.5 14.337 27.2366 13.7011 26.7678 13.2322C26.2989 12.7634 25.663 12.5 25 12.5Z" fill="#005FF9"/>
</svg>
