<svg width="50" height="50" viewBox="0 0 50 50" fill="none" xmlns="http://www.w3.org/2000/svg">
<path d="M11.3875 12.92C11.011 12.6688 10.5734 12.5245 10.1213 12.5026C9.66922 12.4806 9.21966 12.5818 8.82059 12.7953C8.42151 13.0088 8.08789 13.3267 7.85531 13.715C7.62274 14.1033 7.49993 14.5474 7.5 15V35C7.49993 35.4526 7.62274 35.8968 7.85531 36.285C8.08789 36.6733 8.42151 36.9912 8.82059 37.2047C9.21966 37.4182 9.66922 37.5194 10.1213 37.4974C10.5734 37.4755 11.011 37.3312 11.3875 37.08L25 28.005V35C24.9999 35.4526 25.1227 35.8968 25.3553 36.285C25.5879 36.6733 25.9215 36.9912 26.3206 37.2047C26.7197 37.4182 27.1692 37.5194 27.6213 37.4974C28.0734 37.4755 28.511 37.3312 28.8875 37.08L43.8875 27.08C44.2299 26.8517 44.5106 26.5424 44.7048 26.1796C44.899 25.8167 45.0006 25.4115 45.0006 25C45.0006 24.5885 44.899 24.1833 44.7048 23.8205C44.5106 23.4576 44.2299 23.1483 43.8875 22.92L28.8875 12.92C28.511 12.6688 28.0734 12.5245 27.6213 12.5026C27.1692 12.4806 26.7197 12.5818 26.3206 12.7953C25.9215 13.0088 25.5879 13.3267 25.3553 13.715C25.1227 14.1033 24.9999 14.5474 25 15V21.995L11.3875 12.92Z" fill="#005FF9"/>
</svg>
