<svg viewBox="0 0 50 50" fill="none" xmlns="http://www.w3.org/2000/svg">
    <path d="M21.7675 18.2325C21.296 17.7771 20.6645 17.5251 20.009 17.5308C19.3535 17.5365 18.7265 17.7994 18.2629 18.263C17.7994 18.7265 17.5365 19.3535 17.5308 20.009C17.5251 20.6645 17.7771 21.296 18.2325 21.7675L23.2325 26.7675C23.7013 27.2362 24.3371 27.4995 25 27.4995C25.6629 27.4995 26.2987 27.2362 26.7675 26.7675L31.7675 21.7675C32.2229 21.296 32.4749 20.6645 32.4692 20.009C32.4635 19.3535 32.2006 18.7265 31.737 18.263C31.2735 17.7994 30.6465 17.5365 29.991 17.5308C29.3355 17.5251 28.704 17.7771 28.2325 18.2325L27.5 18.965V7.5C27.5 6.83696 27.2366 6.20107 26.7678 5.73223C26.2989 5.26339 25.663 5 25 5C24.337 5 23.7011 5.26339 23.2322 5.73223C22.7634 6.20107 22.5 6.83696 22.5 7.5V18.965L21.7675 18.2325Z"
          fill="currentColor"/>
    <path d="M7.5 12.5C7.5 11.1739 8.02678 9.90215 8.96447 8.96447C9.90215 8.02678 11.1739 7.5 12.5 7.5H15C15.663 7.5 16.2989 7.76339 16.7678 8.23223C17.2366 8.70107 17.5 9.33696 17.5 10C17.5 10.663 17.2366 11.2989 16.7678 11.7678C16.2989 12.2366 15.663 12.5 15 12.5H12.5V30H17.5L20 35H30L32.5 30H37.5V12.5H35C34.337 12.5 33.7011 12.2366 33.2322 11.7678C32.7634 11.2989 32.5 10.663 32.5 10C32.5 9.33696 32.7634 8.70107 33.2322 8.23223C33.7011 7.76339 34.337 7.5 35 7.5H37.5C38.8261 7.5 40.0979 8.02678 41.0355 8.96447C41.9732 9.90215 42.5 11.1739 42.5 12.5V37.5C42.5 38.8261 41.9732 40.0979 41.0355 41.0355C40.0979 41.9732 38.8261 42.5 37.5 42.5H12.5C11.1739 42.5 9.90215 41.9732 8.96447 41.0355C8.02678 40.0979 7.5 38.8261 7.5 37.5V12.5Z"
          fill="currentColor"/>
</svg>
