<svg width="21" height="20" viewBox="0 0 21 20" fill="none" xmlns="http://www.w3.org/2000/svg">
    <path fill-rule="evenodd" clip-rule="evenodd"
          d="M3.25 3C2.98478 3 2.73043 3.10536 2.54289 3.29289C2.35536 3.48043 2.25 3.73478 2.25 4V16C2.25 16.2652 2.35536 16.5196 2.54289 16.7071C2.73043 16.8946 2.98478 17 3.25 17C3.51522 17 3.76957 16.8946 3.95711 16.7071C4.14464 16.5196 4.25 16.2652 4.25 16V4C4.25 3.73478 4.14464 3.48043 3.95711 3.29289C3.76957 3.10536 3.51522 3 3.25 3ZM13.543 12.293C13.3608 12.4816 13.26 12.7342 13.2623 12.9964C13.2646 13.2586 13.3698 13.5094 13.5552 13.6948C13.7406 13.8802 13.9914 13.9854 14.2536 13.9877C14.5158 13.99 14.7684 13.8892 14.957 13.707L17.957 10.707C18.1445 10.5195 18.2498 10.2652 18.2498 10C18.2498 9.73484 18.1445 9.48053 17.957 9.293L14.957 6.293C14.8648 6.19749 14.7544 6.12131 14.6324 6.0689C14.5104 6.01649 14.3792 5.9889 14.2464 5.98775C14.1136 5.9866 13.9819 6.0119 13.859 6.06218C13.7361 6.11246 13.6245 6.18671 13.5306 6.2806C13.4367 6.3745 13.3625 6.48615 13.3122 6.60905C13.2619 6.73194 13.2366 6.86362 13.2377 6.9964C13.2389 7.12918 13.2665 7.2604 13.3189 7.3824C13.3713 7.50441 13.4475 7.61475 13.543 7.707L14.836 9H7.25C6.98478 9 6.73043 9.10536 6.54289 9.29289C6.35536 9.48043 6.25 9.73478 6.25 10C6.25 10.2652 6.35536 10.5196 6.54289 10.7071C6.73043 10.8946 6.98478 11 7.25 11H14.836L13.543 12.293Z"
          fill="currentColor"/>
</svg>
