<svg viewBox="0 0 60 60" fill="none" xmlns="http://www.w3.org/2000/svg">
    <path fill-rule="evenodd" clip-rule="evenodd"
          d="M28.512 3.39601C28.9652 3.13714 29.4781 3.00098 30 3.00098C30.5219 3.00098 31.0348 3.13714 31.488 3.39601L36.738 6.39601C37.0899 6.58616 37.4001 6.84475 37.6506 7.15656C37.901 7.46837 38.0866 7.82711 38.1964 8.21169C38.3062 8.59626 38.338 8.99891 38.2899 9.39595C38.2418 9.79299 38.1148 10.1764 37.9164 10.5236C37.718 10.8709 37.4521 11.175 37.1345 11.418C36.8168 11.661 36.4538 11.838 36.0667 11.9387C35.6796 12.0393 35.2763 12.0616 34.8806 12.0041C34.4848 11.9466 34.1045 11.8106 33.762 11.604L30 9.45601L26.238 11.604C25.8956 11.8106 25.5153 11.9466 25.1195 12.0041C24.7237 12.0616 24.3204 12.0393 23.9333 11.9387C23.5463 11.838 23.1832 11.661 22.8656 11.418C22.5479 11.175 22.2821 10.8709 22.0836 10.5236C21.8852 10.1764 21.7582 9.79299 21.7101 9.39595C21.6621 8.99891 21.6938 8.59626 21.8036 8.21169C21.9134 7.82711 22.099 7.46837 22.3494 7.15656C22.5999 6.84475 22.9102 6.58616 23.262 6.39601L28.512 3.39601ZM16.854 13.512C17.2484 14.2027 17.3524 15.0217 17.1432 15.789C16.9339 16.5564 16.4285 17.2092 15.738 17.604L15.048 18L15.738 18.396C16.0899 18.5862 16.4001 18.8447 16.6506 19.1566C16.901 19.4684 17.0866 19.8271 17.1964 20.2117C17.3062 20.5963 17.338 20.9989 17.2899 21.3959C17.2418 21.793 17.1148 22.1764 16.9164 22.5236C16.718 22.8709 16.4521 23.175 16.1345 23.418C15.8168 23.661 15.4538 23.838 15.0667 23.9387C14.6796 24.0393 14.2764 24.0616 13.8806 24.0041C13.4848 23.9466 13.1045 23.8106 12.762 23.604L12 23.169V24C12 24.7957 11.6839 25.5587 11.1213 26.1213C10.5587 26.6839 9.79566 27 9.00001 27C8.20437 27 7.4413 26.6839 6.87869 26.1213C6.31608 25.5587 6.00001 24.7957 6.00001 24V18C5.99834 17.4611 6.14244 16.9318 6.41707 16.4681C6.6917 16.0044 7.08662 15.6236 7.56001 15.366L12.762 12.396C13.4527 12.0016 14.2717 11.8976 15.0391 12.1069C15.8064 12.3161 16.4592 12.8216 16.854 13.512ZM43.146 13.512C43.5408 12.8216 44.1936 12.3161 44.961 12.1069C45.7283 11.8976 46.5473 12.0016 47.238 12.396L52.437 15.366C52.9097 15.6247 53.3042 16.0056 53.5791 16.469C53.8541 16.9324 53.9995 17.4612 54 18V24C54 24.7957 53.6839 25.5587 53.1213 26.1213C52.5587 26.6839 51.7957 27 51 27C50.2044 27 49.4413 26.6839 48.8787 26.1213C48.3161 25.5587 48 24.7957 48 24V23.169L47.238 23.604C46.8956 23.8106 46.5153 23.9466 46.1195 24.0041C45.7237 24.0616 45.3204 24.0393 44.9333 23.9387C44.5463 23.838 44.1832 23.661 43.8656 23.418C43.5479 23.175 43.2821 22.8709 43.0836 22.5236C42.8852 22.1764 42.7582 21.793 42.7101 21.3959C42.6621 20.9989 42.6938 20.5963 42.8036 20.2117C42.9134 19.8271 43.099 19.4684 43.3494 19.1566C43.5999 18.8447 43.9102 18.5862 44.262 18.396L44.952 18L44.262 17.604C43.5716 17.2092 43.0661 16.5564 42.8569 15.789C42.6476 15.0217 42.7516 14.2027 43.146 13.512ZM22.146 25.512C22.5408 24.8216 23.1936 24.3161 23.961 24.1069C24.7283 23.8976 25.5473 24.0016 26.238 24.396L30 26.544L33.762 24.396C34.1045 24.1894 34.4848 24.0534 34.8806 23.9959C35.2763 23.9385 35.6796 23.9607 36.0667 24.0614C36.4538 24.162 36.8168 24.3391 37.1345 24.5821C37.4521 24.8251 37.718 25.1291 37.9164 25.4764C38.1148 25.8236 38.2418 26.207 38.2899 26.6041C38.338 27.0011 38.3062 27.4038 38.1964 27.7883C38.0866 28.1729 37.901 28.5317 37.6506 28.8435C37.4001 29.1553 37.0899 29.4139 36.738 29.604L33 31.74V36C33 36.7957 32.6839 37.5587 32.1213 38.1213C31.5587 38.6839 30.7957 39 30 39C29.2044 39 28.4413 38.6839 27.8787 38.1213C27.3161 37.5587 27 36.7957 27 36V31.74L23.262 29.604C22.5716 29.2092 22.0661 28.5564 21.8569 27.789C21.6476 27.0217 21.7516 26.2027 22.146 25.512ZM9.00001 33C9.79566 33 10.5587 33.3161 11.1213 33.8787C11.6839 34.4413 12 35.2044 12 36V40.26L15.738 42.396C16.0899 42.5862 16.4001 42.8447 16.6506 43.1566C16.901 43.4684 17.0866 43.8271 17.1964 44.2117C17.3062 44.5963 17.338 44.9989 17.2899 45.396C17.2418 45.793 17.1148 46.1764 16.9164 46.5236C16.718 46.8709 16.4521 47.175 16.1345 47.418C15.8168 47.661 15.4538 47.838 15.0667 47.9387C14.6796 48.0393 14.2764 48.0616 13.8806 48.0041C13.4848 47.9466 13.1045 47.8106 12.762 47.604L7.51201 44.604C7.05285 44.3417 6.67117 43.9627 6.40565 43.5054C6.14012 43.0482 6.00019 42.5288 6.00001 42V36C6.00001 35.2044 6.31608 34.4413 6.87869 33.8787C7.4413 33.3161 8.20437 33 9.00001 33ZM51 33C51.7957 33 52.5587 33.3161 53.1213 33.8787C53.6839 34.4413 54 35.2044 54 36V42C53.9998 42.5288 53.8599 43.0482 53.5944 43.5054C53.3289 43.9627 52.9472 44.3417 52.488 44.604L47.238 47.604C46.8956 47.8106 46.5153 47.9466 46.1195 48.0041C45.7237 48.0616 45.3204 48.0393 44.9333 47.9387C44.5463 47.838 44.1832 47.661 43.8656 47.418C43.5479 47.175 43.2821 46.8709 43.0836 46.5236C42.8852 46.1764 42.7582 45.793 42.7101 45.396C42.6621 44.9989 42.6938 44.5963 42.8036 44.2117C42.9134 43.8271 43.099 43.4684 43.3494 43.1566C43.5999 42.8447 43.9102 42.5862 44.262 42.396L48 40.26V36C48 35.2044 48.3161 34.4413 48.8787 33.8787C49.4413 33.3161 50.2044 33 51 33ZM22.146 49.512C22.5408 48.8216 23.1936 48.3161 23.961 48.1069C24.7283 47.8976 25.5473 48.0016 26.238 48.396L27 48.831V48C27 47.2044 27.3161 46.4413 27.8787 45.8787C28.4413 45.3161 29.2044 45 30 45C30.7957 45 31.5587 45.3161 32.1213 45.8787C32.6839 46.4413 33 47.2044 33 48V48.831L33.762 48.396C34.1045 48.1894 34.4848 48.0534 34.8806 47.9959C35.2763 47.9384 35.6796 47.9607 36.0667 48.0614C36.4538 48.162 36.8168 48.3391 37.1345 48.5821C37.4521 48.8251 37.718 49.1291 37.9164 49.4764C38.1148 49.8236 38.2418 50.207 38.2899 50.6041C38.338 51.0011 38.3062 51.4038 38.1964 51.7883C38.0866 52.1729 37.901 52.5316 37.6506 52.8435C37.4001 53.1553 37.0899 53.4139 36.738 53.604L31.533 56.58C31.0697 56.8573 30.5399 57.0037 30 57.0037C29.4601 57.0037 28.9303 56.8573 28.467 56.58L23.262 53.604C22.5716 53.2092 22.0661 52.5564 21.8569 51.7891C21.6476 51.0217 21.7516 50.2027 22.146 49.512Z"
          fill="currentColor"/>
</svg>
