<svg width="36" height="36" viewBox="0 0 36 36" fill="none" xmlns="http://www.w3.org/2000/svg">
<path fill-rule="evenodd" clip-rule="evenodd" d="M5.40002 9.00001C5.40002 8.52262 5.58967 8.06479 5.92723 7.72722C6.2648 7.38965 6.72263 7.20001 7.20002 7.20001H28.8C29.2774 7.20001 29.7353 7.38965 30.0728 7.72722C30.4104 8.06479 30.6 8.52262 30.6 9.00001C30.6 9.4774 30.4104 9.93524 30.0728 10.2728C29.7353 10.6104 29.2774 10.8 28.8 10.8H7.20002C6.72263 10.8 6.2648 10.6104 5.92723 10.2728C5.58967 9.93524 5.40002 9.4774 5.40002 9.00001ZM5.40002 18C5.40002 17.5226 5.58967 17.0648 5.92723 16.7272C6.2648 16.3897 6.72263 16.2 7.20002 16.2H28.8C29.2774 16.2 29.7353 16.3897 30.0728 16.7272C30.4104 17.0648 30.6 17.5226 30.6 18C30.6 18.4774 30.4104 18.9352 30.0728 19.2728C29.7353 19.6104 29.2774 19.8 28.8 19.8H7.20002C6.72263 19.8 6.2648 19.6104 5.92723 19.2728C5.58967 18.9352 5.40002 18.4774 5.40002 18ZM5.40002 27C5.40002 26.5226 5.58967 26.0648 5.92723 25.7272C6.2648 25.3897 6.72263 25.2 7.20002 25.2H28.8C29.2774 25.2 29.7353 25.3897 30.0728 25.7272C30.4104 26.0648 30.6 26.5226 30.6 27C30.6 27.4774 30.4104 27.9352 30.0728 28.2728C29.7353 28.6104 29.2774 28.8 28.8 28.8H7.20002C6.72263 28.8 6.2648 28.6104 5.92723 28.2728C5.58967 27.9352 5.40002 27.4774 5.40002 27Z" fill="#212121" fill-opacity="0.5"/>
</svg>
