<svg width="36" height="36" viewBox="0 0 36 36" fill="none" xmlns="http://www.w3.org/2000/svg">
<path d="M5.39998 5.39999C4.92259 5.39999 4.46475 5.58964 4.12718 5.9272C3.78962 6.26477 3.59998 6.7226 3.59998 7.19999C3.59998 7.67738 3.78962 8.13522 4.12718 8.47279C4.46475 8.81035 4.92259 8.99999 5.39998 8.99999H25.2C25.6774 8.99999 26.1352 8.81035 26.4728 8.47279C26.8103 8.13522 27 7.67738 27 7.19999C27 6.7226 26.8103 6.26477 26.4728 5.9272C26.1352 5.58964 25.6774 5.39999 25.2 5.39999H5.39998ZM5.39998 12.6C4.92259 12.6 4.46475 12.7896 4.12718 13.1272C3.78962 13.4648 3.59998 13.9226 3.59998 14.4C3.59998 14.8774 3.78962 15.3352 4.12718 15.6728C4.46475 16.0104 4.92259 16.2 5.39998 16.2H18C18.4774 16.2 18.9352 16.0104 19.2728 15.6728C19.6103 15.3352 19.8 14.8774 19.8 14.4C19.8 13.9226 19.6103 13.4648 19.2728 13.1272C18.9352 12.7896 18.4774 12.6 18 12.6H5.39998ZM5.39998 19.8C4.92259 19.8 4.46475 19.9896 4.12718 20.3272C3.78962 20.6648 3.59998 21.1226 3.59998 21.6C3.59998 22.0774 3.78962 22.5352 4.12718 22.8728C4.46475 23.2104 4.92259 23.4 5.39998 23.4H12.6C13.0774 23.4 13.5352 23.2104 13.8728 22.8728C14.2103 22.5352 14.4 22.0774 14.4 21.6C14.4 21.1226 14.2103 20.6648 13.8728 20.3272C13.5352 19.9896 13.0774 19.8 12.6 19.8H5.39998ZM27 14.4C27 13.9226 26.8103 13.4648 26.4728 13.1272C26.1352 12.7896 25.6774 12.6 25.2 12.6C24.7226 12.6 24.2647 12.7896 23.9272 13.1272C23.5896 13.4648 23.4 13.9226 23.4 14.4V24.4548L21.0726 22.1274C20.7331 21.7995 20.2784 21.6181 19.8065 21.6222C19.3345 21.6263 18.883 21.8156 18.5493 22.1493C18.2156 22.4831 18.0263 22.9345 18.0222 23.4065C18.0181 23.8784 18.1995 24.3331 18.5274 24.6726L23.9274 30.0726C24.2649 30.41 24.7227 30.5996 25.2 30.5996C25.6773 30.5996 26.135 30.41 26.4726 30.0726L31.8726 24.6726C32.2005 24.3331 32.3819 23.8784 32.3778 23.4065C32.3737 22.9345 32.1844 22.4831 31.8507 22.1493C31.5169 21.8156 31.0655 21.6263 30.5935 21.6222C30.1215 21.6181 29.6669 21.7995 29.3274 22.1274L27 24.4548V14.4Z" fill="#212121" fill-opacity="0.5"/>
</svg>
