<svg width="36" height="36" viewBox="0 0 36 36" fill="none" xmlns="http://www.w3.org/2000/svg">
<path d="M5.39998 5.39999C4.92259 5.39999 4.46475 5.58964 4.12718 5.9272C3.78962 6.26477 3.59998 6.7226 3.59998 7.19999C3.59998 7.67738 3.78962 8.13522 4.12718 8.47279C4.46475 8.81035 4.92259 8.99999 5.39998 8.99999H25.2C25.6774 8.99999 26.1352 8.81035 26.4728 8.47279C26.8103 8.13522 27 7.67738 27 7.19999C27 6.7226 26.8103 6.26477 26.4728 5.9272C26.1352 5.58964 25.6774 5.39999 25.2 5.39999H5.39998ZM5.39998 12.6C4.92259 12.6 4.46475 12.7896 4.12718 13.1272C3.78962 13.4648 3.59998 13.9226 3.59998 14.4C3.59998 14.8774 3.78962 15.3352 4.12718 15.6728C4.46475 16.0104 4.92259 16.2 5.39998 16.2H14.4C14.8774 16.2 15.3352 16.0104 15.6728 15.6728C16.0103 15.3352 16.2 14.8774 16.2 14.4C16.2 13.9226 16.0103 13.4648 15.6728 13.1272C15.3352 12.7896 14.8774 12.6 14.4 12.6H5.39998ZM5.39998 19.8C4.92259 19.8 4.46475 19.9896 4.12718 20.3272C3.78962 20.6648 3.59998 21.1226 3.59998 21.6C3.59998 22.0774 3.78962 22.5352 4.12718 22.8728C4.46475 23.2104 4.92259 23.4 5.39998 23.4H12.6C13.0774 23.4 13.5352 23.2104 13.8728 22.8728C14.2103 22.5352 14.4 22.0774 14.4 21.6C14.4 21.1226 14.2103 20.6648 13.8728 20.3272C13.5352 19.9896 13.0774 19.8 12.6 19.8H5.39998ZM23.4 28.8C23.4 29.2774 23.5896 29.7352 23.9272 30.0728C24.2647 30.4104 24.7226 30.6 25.2 30.6C25.6774 30.6 26.1352 30.4104 26.4728 30.0728C26.8103 29.7352 27 29.2774 27 28.8V18.7452L29.3274 21.0726C29.6669 21.4005 30.1215 21.5819 30.5935 21.5778C31.0655 21.5737 31.5169 21.3844 31.8507 21.0507C32.1844 20.7169 32.3737 20.2655 32.3778 19.7935C32.3819 19.3216 32.2005 18.8669 31.8726 18.5274L26.4726 13.1274C26.135 12.7899 25.6773 12.6004 25.2 12.6004C24.7227 12.6004 24.2649 12.7899 23.9274 13.1274L18.5274 18.5274C18.3555 18.6934 18.2183 18.8921 18.124 19.1117C18.0297 19.3313 17.98 19.5675 17.9779 19.8065C17.9758 20.0455 18.0214 20.2825 18.1119 20.5037C18.2024 20.7249 18.3361 20.9259 18.5051 21.0949C18.6741 21.2639 18.875 21.3976 19.0963 21.4881C19.3175 21.5786 19.5545 21.6241 19.7935 21.622C20.0325 21.62 20.2687 21.5703 20.4883 21.476C20.7079 21.3816 20.9065 21.2445 21.0726 21.0726L23.4 18.7452V28.8Z" fill="#212121" fill-opacity="0.5"/>
</svg>
