<svg width="50" height="50" viewBox="0 0 50 50" fill="none" xmlns="http://www.w3.org/2000/svg">
<path d="M20 12.5C19.337 12.5 18.7011 12.7634 18.2322 13.2322C17.7634 13.7011 17.5 14.3369 17.5 15C17.5 15.663 17.7634 16.2989 18.2322 16.7678C18.7011 17.2366 19.337 17.5 20 17.5H33.965L30.7325 20.7325C30.2771 21.204 30.0251 21.8355 30.0308 22.491C30.0365 23.1465 30.2994 23.7735 30.763 24.237C31.2265 24.7006 31.8535 24.9635 32.509 24.9692C33.1645 24.9749 33.796 24.7229 34.2675 24.2675L41.7675 16.7675C42.2362 16.2987 42.4995 15.6629 42.4995 15C42.4995 14.3371 42.2362 13.7013 41.7675 13.2325L34.2675 5.73249C34.0369 5.49371 33.761 5.30326 33.456 5.17224C33.151 5.04121 32.823 4.97225 32.491 4.96936C32.1591 4.96648 31.8299 5.02973 31.5226 5.15544C31.2154 5.28114 30.9362 5.46677 30.7015 5.7015C30.4668 5.93623 30.2811 6.21536 30.1554 6.5226C30.0297 6.82984 29.9665 7.15904 29.9694 7.49099C29.9723 7.82294 30.0412 8.15099 30.1722 8.456C30.3033 8.76101 30.4937 9.03687 30.7325 9.26749L33.965 12.5H20ZM30 37.5C30.663 37.5 31.2989 37.2366 31.7678 36.7678C32.2366 36.2989 32.5 35.663 32.5 35C32.5 34.3369 32.2366 33.7011 31.7678 33.2322C31.2989 32.7634 30.663 32.5 30 32.5H16.035L19.2675 29.2675C19.5063 29.0369 19.6967 28.761 19.8278 28.456C19.9588 28.151 20.0277 27.8229 20.0306 27.491C20.0335 27.159 19.9703 26.8298 19.8446 26.5226C19.7189 26.2154 19.5332 25.9362 19.2985 25.7015C19.0638 25.4668 18.7846 25.2811 18.4774 25.1554C18.1701 25.0297 17.8409 24.9665 17.509 24.9694C17.177 24.9722 16.849 25.0412 16.544 25.1722C16.239 25.3033 15.9631 25.4937 15.7325 25.7325L8.2325 33.2325C7.76382 33.7013 7.50053 34.3371 7.50053 35C7.50053 35.6629 7.76382 36.2987 8.2325 36.7675L15.7325 44.2675C16.204 44.7229 16.8355 44.9749 17.491 44.9692C18.1465 44.9635 18.7735 44.7006 19.237 44.237C19.7006 43.7735 19.9635 43.1465 19.9692 42.491C19.9749 41.8355 19.7229 41.204 19.2675 40.7325L16.035 37.5H30Z" fill="#005FF9"/>
</svg>
