<svg width="50" height="50" viewBox="0 0 50 50" fill="none" xmlns="http://www.w3.org/2000/svg">
<path fill-rule="evenodd" clip-rule="evenodd" d="M30 32.5C29.337 32.5 28.7011 32.7634 28.2322 33.2322C27.7634 33.7011 27.5 34.337 27.5 35C27.5 35.6631 27.7634 36.2989 28.2322 36.7678C28.7011 37.2366 29.337 37.5 30 37.5H42.5C43.163 37.5 43.7989 37.2366 44.2678 36.7678C44.7366 36.2989 45 35.6631 45 35V22.5C45 21.837 44.7366 21.2011 44.2678 20.7322C43.7989 20.2634 43.163 20 42.5 20C41.837 20 41.2011 20.2634 40.7322 20.7322C40.2634 21.2011 40 21.837 40 22.5V28.965L29.2675 18.2325C28.7987 17.7638 28.1629 17.5005 27.5 17.5005C26.8371 17.5005 26.2013 17.7638 25.7325 18.2325L20 23.965L9.2675 13.2325C8.79599 12.7771 8.16448 12.5251 7.50899 12.5308C6.8535 12.5365 6.22647 12.7994 5.76295 13.263C5.29943 13.7265 5.03651 14.3535 5.03081 15.009C5.02511 15.6645 5.2771 16.296 5.7325 16.7675L18.2325 29.2675C18.7013 29.7362 19.3371 29.9995 20 29.9995C20.6629 29.9995 21.2987 29.7362 21.7675 29.2675L27.5 23.535L36.465 32.5H30Z" fill="#005FF9"/>
</svg>
