<svg width="25" height="25" viewBox="0 0 25 25" fill="none" xmlns="http://www.w3.org/2000/svg">
    <path d="M20.9821 19.6395H20.3125V10.1529C20.3125 6.21591 17.4023 2.96256 13.6161 2.42127V1.33589C13.6161 0.71926 13.1166 0.219818 12.5 0.219818C11.8834 0.219818 11.3839 0.71926 11.3839 1.33589V2.42127C7.59766 2.96256 4.6875 6.21591 4.6875 10.1529V19.6395H4.01786C3.524 19.6395 3.125 20.0385 3.125 20.5323V21.4252C3.125 21.5479 3.22545 21.6484 3.34821 21.6484H9.375C9.375 23.3727 10.7757 24.7734 12.5 24.7734C14.2243 24.7734 15.625 23.3727 15.625 21.6484H21.6518C21.7746 21.6484 21.875 21.5479 21.875 21.4252V20.5323C21.875 20.0385 21.476 19.6395 20.9821 19.6395ZM12.5 22.9877C11.7606 22.9877 11.1607 22.3878 11.1607 21.6484H13.8393C13.8393 22.3878 13.2394 22.9877 12.5 22.9877ZM6.69643 19.6395V10.1529C6.69643 8.60151 7.29911 7.14504 8.39565 6.0485C9.49219 4.95196 10.9487 4.34928 12.5 4.34928C14.0513 4.34928 15.5078 4.95196 16.6044 6.0485C17.7009 7.14504 18.3036 8.60151 18.3036 10.1529V19.6395H6.69643Z"
          fill="currentColor" fill-opacity="0.85"/>
</svg>
