<svg width="34" height="34" viewBox="0 0 34 34" fill="none" xmlns="http://www.w3.org/2000/svg">
<path d="M30.2433 23.1198H11.0523L12.0159 21.1572L28.0261 21.1282C28.5675 21.1282 29.0315 20.7415 29.1282 20.2065L31.3454 7.79609C31.4034 7.47061 31.3164 7.13545 31.1037 6.88086C30.9986 6.75556 30.8675 6.65463 30.7194 6.58507C30.5714 6.51551 30.41 6.47899 30.2465 6.47803L9.8793 6.41035L9.70527 5.5918C9.5957 5.06973 9.12519 4.68945 8.59023 4.68945H3.61123C3.30952 4.68945 3.02017 4.80931 2.80683 5.02265C2.59349 5.23599 2.47363 5.52534 2.47363 5.82705C2.47363 6.12876 2.59349 6.41811 2.80683 6.63145C3.02017 6.84479 3.30952 6.96465 3.61123 6.96465H7.66855L8.4291 10.5805L10.3015 19.6458L7.89092 23.5807C7.76573 23.7496 7.69033 23.9502 7.67325 24.1598C7.65616 24.3694 7.69807 24.5796 7.79424 24.7666C7.9876 25.1501 8.37754 25.3918 8.80937 25.3918H10.8332C10.4017 25.9649 10.1687 26.6629 10.1693 27.3802C10.1693 29.2042 11.6518 30.6866 13.4758 30.6866C15.2998 30.6866 16.7822 29.2042 16.7822 27.3802C16.7822 26.6615 16.5437 25.9622 16.1184 25.3918H21.3101C20.8786 25.9649 20.6456 26.6629 20.6462 27.3802C20.6462 29.2042 22.1286 30.6866 23.9526 30.6866C25.7767 30.6866 27.2591 29.2042 27.2591 27.3802C27.2591 26.6615 27.0206 25.9622 26.5952 25.3918H30.2465C30.8717 25.3918 31.3841 24.8826 31.3841 24.2542C31.3822 23.9528 31.2612 23.6644 31.0475 23.4519C30.8338 23.2394 30.5447 23.12 30.2433 23.1198ZM10.353 8.65332L28.9091 8.71455L27.0915 18.8917L12.5154 18.9175L10.353 8.65332ZM13.4758 28.3985C12.915 28.3985 12.4574 27.9409 12.4574 27.3802C12.4574 26.8194 12.915 26.3618 13.4758 26.3618C14.0365 26.3618 14.4941 26.8194 14.4941 27.3802C14.4941 27.6503 14.3868 27.9093 14.1959 28.1003C14.0049 28.2912 13.7459 28.3985 13.4758 28.3985ZM23.9526 28.3985C23.3919 28.3985 22.9343 27.9409 22.9343 27.3802C22.9343 26.8194 23.3919 26.3618 23.9526 26.3618C24.5134 26.3618 24.971 26.8194 24.971 27.3802C24.971 27.6503 24.8637 27.9093 24.6727 28.1003C24.4817 28.2912 24.2227 28.3985 23.9526 28.3985Z" fill="#212121" fill-opacity="0.9"/>
</svg>
