<svg width="30" height="30" viewBox="0 0 30 30" fill="none" xmlns="http://www.w3.org/2000/svg">
<path d="M28.7621 7.34655C28.3133 6.30738 27.6661 5.36571 26.8569 4.57423C26.0471 3.78038 25.0923 3.14953 24.0444 2.71597C22.9579 2.2646 21.7925 2.03357 20.6159 2.03628C18.9652 2.03628 17.3547 2.48829 15.9551 3.34208C15.6203 3.54632 15.3022 3.77065 15.0009 4.01507C14.6996 3.77065 14.3815 3.54632 14.0467 3.34208C12.6471 2.48829 11.0366 2.03628 9.38595 2.03628C8.19733 2.03628 7.04555 2.26396 5.95738 2.71597C4.90604 3.15123 3.9585 3.77735 3.14488 4.57423C2.3346 5.36481 1.68733 6.30671 1.23975 7.34655C0.774344 8.42802 0.536621 9.57646 0.536621 10.7584C0.536621 11.8733 0.7643 13.0352 1.21631 14.2171C1.59466 15.2048 2.13707 16.2294 2.83015 17.264C3.92836 18.9012 5.43841 20.6088 7.31341 22.3399C10.4205 25.2093 13.4976 27.1914 13.6281 27.2718L14.4217 27.7807C14.7732 28.005 15.2252 28.005 15.5768 27.7807L16.3703 27.2718C16.5009 27.1881 19.5746 25.2093 22.6851 22.3399C24.5601 20.6088 26.0701 18.9012 27.1683 17.264C27.8614 16.2294 28.4072 15.2048 28.7822 14.2171C29.2342 13.0352 29.4618 11.8733 29.4618 10.7584C29.4652 9.57646 29.2275 8.42802 28.7621 7.34655ZM15.0009 25.1323C15.0009 25.1323 3.08126 17.495 3.08126 10.7584C3.08126 7.34655 5.90381 4.58092 9.38595 4.58092C11.8335 4.58092 13.9563 5.94699 15.0009 7.94253C16.0455 5.94699 18.1683 4.58092 20.6159 4.58092C24.098 4.58092 26.9205 7.34655 26.9205 10.7584C26.9205 17.495 15.0009 25.1323 15.0009 25.1323Z" fill="#212121" fill-opacity="0.9"/>
</svg>
