<svg width="28" height="28" viewBox="0 0 28 28" fill="none" xmlns="http://www.w3.org/2000/svg">
<g clip-path="url(#clip0_236_1971)">
<path d="M27.0948 13.7873L15.4511 2.14953L14.6706 1.36906C14.4928 1.19241 14.2523 1.09326 14.0016 1.09326C13.751 1.09326 13.5105 1.19241 13.3327 1.36906L0.90844 13.7873C0.726223 13.9688 0.582214 14.1849 0.484914 14.423C0.387613 14.6611 0.338993 14.9162 0.341922 15.1734C0.353975 16.2341 1.2369 17.0809 2.29761 17.0809H3.57831V26.8955H24.425V17.0809H25.7328C26.2481 17.0809 26.7332 16.879 27.0978 16.5144C27.2774 16.3354 27.4196 16.1226 27.5164 15.8883C27.6131 15.654 27.6624 15.4028 27.6613 15.1493C27.6613 14.637 27.4594 14.1519 27.0948 13.7873ZM15.6891 24.7259H12.3141V18.5786H15.6891V24.7259ZM22.2553 14.9113V24.7259H17.6177V17.8553C17.6177 17.1894 17.0783 16.65 16.4123 16.65H11.5909C10.925 16.65 10.3856 17.1894 10.3856 17.8553V24.7259H5.74795V14.9113H2.85509L14.0046 3.77074L14.7007 4.46683L25.1512 14.9113H22.2553Z" fill="#005FF9"/>
</g>
<defs>
<clipPath id="clip0_236_1971">
<rect width="27" height="27" fill="white" transform="translate(0.5 0.5)"/>
</clipPath>
</defs>
</svg>
