<svg width="28" height="28" viewBox="0 0 28 28" fill="none" xmlns="http://www.w3.org/2000/svg">
<path d="M26.0543 4.35903H8.45606C8.32347 4.35903 8.21498 4.46751 8.21498 4.6001V6.2876C8.21498 6.42019 8.32347 6.52867 8.45606 6.52867H26.0543C26.1869 6.52867 26.2953 6.42019 26.2953 6.2876V4.6001C26.2953 4.46751 26.1869 4.35903 26.0543 4.35903ZM26.0543 12.9171H8.45606C8.32347 12.9171 8.21498 13.0255 8.21498 13.1581V14.8456C8.21498 14.9782 8.32347 15.0867 8.45606 15.0867H26.0543C26.1869 15.0867 26.2953 14.9782 26.2953 14.8456V13.1581C26.2953 13.0255 26.1869 12.9171 26.0543 12.9171ZM26.0543 21.4751H8.45606C8.32347 21.4751 8.21498 21.5836 8.21498 21.7162V23.4037C8.21498 23.5363 8.32347 23.6447 8.45606 23.6447H26.0543C26.1869 23.6447 26.2953 23.5363 26.2953 23.4037V21.7162C26.2953 21.5836 26.1869 21.4751 26.0543 21.4751ZM1.70605 5.44385C1.70605 5.66545 1.7497 5.88489 1.83451 6.08963C1.91931 6.29436 2.04361 6.48039 2.20031 6.63709C2.35701 6.79379 2.54304 6.91809 2.74778 7.00289C2.95251 7.0877 3.17195 7.13135 3.39355 7.13135C3.61516 7.13135 3.8346 7.0877 4.03933 7.00289C4.24407 6.91809 4.4301 6.79379 4.5868 6.63709C4.7435 6.48039 4.8678 6.29436 4.9526 6.08963C5.03741 5.88489 5.08106 5.66545 5.08106 5.44385C5.08106 5.22224 5.03741 5.00281 4.9526 4.79807C4.8678 4.59333 4.7435 4.4073 4.5868 4.25061C4.4301 4.09391 4.24407 3.96961 4.03933 3.8848C3.8346 3.8 3.61516 3.75635 3.39355 3.75635C3.17195 3.75635 2.95251 3.8 2.74778 3.8848C2.54304 3.96961 2.35701 4.09391 2.20031 4.25061C2.04361 4.4073 1.91931 4.59333 1.83451 4.79807C1.7497 5.00281 1.70605 5.22224 1.70605 5.44385ZM1.70605 14.0019C1.70605 14.2235 1.7497 14.4429 1.83451 14.6477C1.91931 14.8524 2.04361 15.0384 2.20031 15.1951C2.35701 15.3518 2.54304 15.4761 2.74778 15.5609C2.95251 15.6457 3.17195 15.6894 3.39355 15.6894C3.61516 15.6894 3.8346 15.6457 4.03933 15.5609C4.24407 15.4761 4.4301 15.3518 4.5868 15.1951C4.7435 15.0384 4.8678 14.8524 4.9526 14.6477C5.03741 14.4429 5.08106 14.2235 5.08106 14.0019C5.08106 13.7803 5.03741 13.5608 4.9526 13.3561C4.8678 13.1514 4.7435 12.9653 4.5868 12.8086C4.4301 12.6519 4.24407 12.5276 4.03933 12.4428C3.8346 12.358 3.61516 12.3144 3.39355 12.3144C3.17195 12.3144 2.95251 12.358 2.74778 12.4428C2.54304 12.5276 2.35701 12.6519 2.20031 12.8086C2.04361 12.9653 1.91931 13.1514 1.83451 13.3561C1.7497 13.5608 1.70605 13.7803 1.70605 14.0019ZM1.70605 22.5599C1.70605 22.7815 1.7497 23.001 1.83451 23.2057C1.91931 23.4104 2.04361 23.5965 2.20031 23.7532C2.35701 23.9099 2.54304 24.0342 2.74778 24.119C2.95251 24.2038 3.17195 24.2474 3.39355 24.2474C3.61516 24.2474 3.8346 24.2038 4.03933 24.119C4.24407 24.0342 4.4301 23.9099 4.5868 23.7532C4.7435 23.5965 4.8678 23.4104 4.9526 23.2057C5.03741 23.001 5.08106 22.7815 5.08106 22.5599C5.08106 22.3383 5.03741 22.1189 4.9526 21.9141C4.8678 21.7094 4.7435 21.5234 4.5868 21.3667C4.4301 21.21 4.24407 21.0857 4.03933 21.0009C3.8346 20.9161 3.61516 20.8724 3.39355 20.8724C3.17195 20.8724 2.95251 20.9161 2.74778 21.0009C2.54304 21.0857 2.35701 21.21 2.20031 21.3667C2.04361 21.5234 1.91931 21.7094 1.83451 21.9141C1.7497 22.1189 1.70605 22.3383 1.70605 22.5599Z" fill="#212121" fill-opacity="0.9"/>
</svg>
