<svg viewBox="0 0 50 50" fill="none" xmlns="http://www.w3.org/2000/svg">
    <path d="M10 7.5C8.67392 7.5 7.40215 8.02678 6.46447 8.96447C5.52678 9.90215 5 11.1739 5 12.5C5 13.8261 5.52678 15.0979 6.46447 16.0355C7.40215 16.9732 8.67392 17.5 10 17.5H40C41.3261 17.5 42.5979 16.9732 43.5355 16.0355C44.4732 15.0979 45 13.8261 45 12.5C45 11.1739 44.4732 9.90215 43.5355 8.96447C42.5979 8.02678 41.3261 7.5 40 7.5H10Z"
          fill="currentColor"/>
    <path fill-rule="evenodd" clip-rule="evenodd"
          d="M7.5 20H42.5V37.5C42.5 38.8261 41.9732 40.0979 41.0355 41.0355C40.0979 41.9732 38.8261 42.5 37.5 42.5H12.5C11.1739 42.5 9.90215 41.9732 8.96447 41.0355C8.02678 40.0979 7.5 38.8261 7.5 37.5V20ZM20 27.5C20 26.837 20.2634 26.2011 20.7322 25.7322C21.2011 25.2634 21.837 25 22.5 25H27.5C28.163 25 28.7989 25.2634 29.2678 25.7322C29.7366 26.2011 30 26.837 30 27.5C30 28.163 29.7366 28.7989 29.2678 29.2678C28.7989 29.7366 28.163 30 27.5 30H22.5C21.837 30 21.2011 29.7366 20.7322 29.2678C20.2634 28.7989 20 28.163 20 27.5Z"
          fill="currentColor"/>
</svg>
