<svg viewBox="0 0 50 50" fill="none" xmlns="http://www.w3.org/2000/svg">
    <path fill-rule="evenodd" clip-rule="evenodd"
          d="M25 45C30.3043 45 35.3914 42.8929 39.1421 39.1421C42.8929 35.3914 45 30.3043 45 25C45 19.6957 42.8929 14.6086 39.1421 10.8579C35.3914 7.10714 30.3043 5 25 5C19.6957 5 14.6086 7.10714 10.8579 10.8579C7.10714 14.6086 5 19.6957 5 25C5 30.3043 7.10714 35.3914 10.8579 39.1421C14.6086 42.8929 19.6957 45 25 45V45ZM34.2675 21.7675C34.7229 21.296 34.9749 20.6645 34.9692 20.009C34.9635 19.3535 34.7006 18.7265 34.237 18.263C33.7735 17.7994 33.1465 17.5365 32.491 17.5308C31.8355 17.5251 31.204 17.7771 30.7325 18.2325L22.5 26.465L19.2675 23.2325C18.796 22.7771 18.1645 22.5251 17.509 22.5308C16.8535 22.5365 16.2265 22.7994 15.763 23.263C15.2994 23.7265 15.0365 24.3535 15.0308 25.009C15.0251 25.6645 15.2771 26.296 15.7325 26.7675L20.7325 31.7675C21.2013 32.2362 21.8371 32.4995 22.5 32.4995C23.1629 32.4995 23.7987 32.2362 24.2675 31.7675L34.2675 21.7675V21.7675Z"
          fill="currentColor"/>
</svg>
