<svg width="85" height="24" viewBox="0 0 85 24" fill="none" xmlns="http://www.w3.org/2000/svg">
<path fill-rule="evenodd" clip-rule="evenodd" d="M10.3835 1.80179C10.5486 1.70255 10.7353 1.65036 10.9254 1.65036C11.1155 1.65036 11.3023 1.70255 11.4673 1.80179L13.3793 2.95179C13.5074 3.02467 13.6204 3.1238 13.7116 3.24334C13.8028 3.36287 13.8704 3.50038 13.9104 3.64779C13.9504 3.79522 13.962 3.94957 13.9445 4.10176C13.9269 4.25396 13.8807 4.40095 13.8084 4.53405C13.7361 4.66715 13.6393 4.78371 13.5236 4.87686C13.408 4.97001 13.2758 5.03789 13.1348 5.07648C12.9938 5.11505 12.847 5.12359 12.7028 5.10155C12.5587 5.07952 12.4202 5.02738 12.2955 4.94819L10.9254 4.12479L9.55537 4.94819C9.43065 5.02738 9.29216 5.07952 9.14803 5.10155C9.00388 5.12359 8.85702 5.11505 8.71606 5.07648C8.57508 5.03789 8.44288 4.97001 8.3272 4.87686C8.21152 4.78371 8.1147 4.66715 8.04244 4.53405C7.97015 4.40095 7.92392 4.25396 7.90639 4.10176C7.88889 3.94957 7.90047 3.79522 7.94046 3.64779C7.98043 3.50038 8.04801 3.36287 8.13924 3.24334C8.23044 3.1238 8.34343 3.02467 8.47157 2.95179L10.3835 1.80179ZM6.13789 5.67959C6.28154 5.94434 6.31941 6.25831 6.24319 6.55246C6.16698 6.84661 5.98292 7.09685 5.73146 7.24819L5.48018 7.39999L5.73146 7.55179C5.8596 7.62467 5.97259 7.7238 6.0638 7.84334C6.15502 7.96287 6.22261 8.10038 6.26257 8.24779C6.30256 8.39522 6.31414 8.54957 6.29664 8.70177C6.27911 8.85396 6.23288 9.00095 6.16059 9.13405C6.08833 9.26715 5.99151 9.38371 5.87583 9.47686C5.76015 9.57001 5.62796 9.63789 5.48697 9.67648C5.34601 9.71505 5.19915 9.72359 5.055 9.70155C4.91088 9.67952 4.77239 9.62738 4.64766 9.54819L4.37015 9.38144V9.69999C4.37015 10.005 4.25504 10.2975 4.05015 10.5132C3.84527 10.7288 3.56737 10.85 3.27761 10.85C2.98784 10.85 2.70994 10.7288 2.50507 10.5132C2.30017 10.2975 2.18506 10.005 2.18506 9.69999V7.39999C2.18445 7.1934 2.23694 6.9905 2.33695 6.81273C2.43696 6.63498 2.58078 6.48903 2.75319 6.39029L4.64766 5.25179C4.89919 5.10059 5.19747 5.06073 5.47692 5.14095C5.75637 5.22117 5.99411 5.41493 6.13789 5.67959ZM15.713 5.67959C15.8567 5.41493 16.0945 5.22117 16.3739 5.14095C16.6534 5.06073 16.9517 5.10059 17.2032 5.25179L19.0966 6.39029C19.2687 6.48944 19.4124 6.63547 19.5125 6.8131C19.6126 6.99075 19.6656 7.19345 19.6658 7.39999V9.69999C19.6658 10.005 19.5507 10.2975 19.3458 10.5132C19.1409 10.7288 18.863 10.85 18.5732 10.85C18.2835 10.85 18.0056 10.7288 17.8007 10.5132C17.5958 10.2975 17.4807 10.005 17.4807 9.69999V9.38144L17.2032 9.54819C17.0785 9.62738 16.94 9.67952 16.7958 9.70155C16.6517 9.72359 16.5048 9.71505 16.3639 9.67648C16.2229 9.63789 16.0907 9.57001 15.975 9.47686C15.8593 9.38371 15.7625 9.26715 15.6903 9.13405C15.618 9.00095 15.5717 8.85396 15.5542 8.70177C15.5367 8.54957 15.5483 8.39522 15.5883 8.24779C15.6282 8.10038 15.6958 7.96287 15.7871 7.84334C15.8783 7.7238 15.9912 7.62467 16.1194 7.55179L16.3707 7.39999L16.1194 7.24819C15.8679 7.09685 15.6839 6.84661 15.6077 6.55246C15.5314 6.25831 15.5693 5.94434 15.713 5.67959ZM8.06514 10.2796C8.20892 10.0149 8.44666 9.82117 8.72611 9.74095C9.00556 9.66073 9.30385 9.70059 9.55537 9.85179L10.9254 10.6752L12.2955 9.85179C12.4202 9.7726 12.5587 9.72046 12.7028 9.69842C12.847 9.67639 12.9938 9.68492 13.1348 9.72352C13.2758 9.76209 13.408 9.82996 13.5236 9.92311C13.6393 10.0163 13.7361 10.1328 13.8084 10.2659C13.8807 10.399 13.9269 10.546 13.9445 10.6982C13.962 10.8504 13.9504 11.0048 13.9104 11.1522C13.8704 11.2996 13.8028 11.4371 13.7116 11.5566C13.6204 11.6762 13.5074 11.7753 13.3793 11.8482L12.018 12.667V14.3C12.018 14.605 11.9029 14.8975 11.698 15.1132C11.4931 15.3288 11.2152 15.45 10.9254 15.45C10.6357 15.45 10.3578 15.3288 10.1529 15.1132C9.94799 14.8975 9.83288 14.605 9.83288 14.3V12.667L8.47157 11.8482C8.22011 11.6968 8.03606 11.4466 7.95984 11.1525C7.88363 10.8583 7.92149 10.5443 8.06514 10.2796ZM3.27761 13.15C3.56737 13.15 3.84527 13.2712 4.05015 13.4868C4.25504 13.7025 4.37015 13.995 4.37015 14.3V15.933L5.73146 16.7518C5.8596 16.8247 5.97259 16.9238 6.0638 17.0433C6.15502 17.1629 6.22261 17.3004 6.26257 17.4478C6.30256 17.5952 6.31414 17.7496 6.29664 17.9018C6.27911 18.054 6.23288 18.2009 6.16059 18.334C6.08833 18.4672 5.99151 18.5837 5.87583 18.6769C5.76015 18.77 5.62796 18.8379 5.48697 18.8765C5.34601 18.9151 5.19915 18.9236 5.055 18.9016C4.91088 18.8795 4.77239 18.8274 4.64766 18.7482L2.73571 17.5982C2.56848 17.4977 2.42949 17.3524 2.3328 17.1771C2.23609 17.0018 2.18513 16.8027 2.18506 16.6V14.3C2.18506 13.995 2.30017 13.7025 2.50507 13.4868C2.70994 13.2712 2.98784 13.15 3.27761 13.15ZM18.5732 13.15C18.863 13.15 19.1409 13.2712 19.3458 13.4868C19.5507 13.7025 19.6658 13.995 19.6658 14.3V16.6C19.6657 16.8027 19.6148 17.0018 19.518 17.1771C19.4214 17.3524 19.2824 17.4977 19.1151 17.5982L17.2032 18.7482C17.0785 18.8274 16.94 18.8795 16.7958 18.9016C16.6517 18.9236 16.5048 18.9151 16.3639 18.8765C16.2229 18.8379 16.0907 18.77 15.975 18.6769C15.8593 18.5837 15.7625 18.4672 15.6903 18.334C15.618 18.2009 15.5717 18.054 15.5542 17.9018C15.5367 17.7496 15.5483 17.5952 15.5883 17.4478C15.6282 17.3004 15.6958 17.1629 15.7871 17.0433C15.8783 16.9238 15.9912 16.8247 16.1194 16.7518L17.4807 15.933V14.3C17.4807 13.995 17.5958 13.7025 17.8007 13.4868C18.0056 13.2712 18.2835 13.15 18.5732 13.15ZM8.06514 19.4796C8.20892 19.2149 8.44666 19.0212 8.72611 18.941C9.00556 18.8607 9.30385 18.9006 9.55537 19.0518L9.83288 19.2185V18.9C9.83288 18.595 9.94799 18.3025 10.1529 18.0868C10.3578 17.8712 10.6357 17.75 10.9254 17.75C11.2152 17.75 11.4931 17.8712 11.698 18.0868C11.9029 18.3025 12.018 18.595 12.018 18.9V19.2185L12.2955 19.0518C12.4202 18.9726 12.5587 18.9205 12.7028 18.8984C12.847 18.8764 12.9938 18.8849 13.1348 18.9235C13.2758 18.9621 13.408 19.03 13.5236 19.1231C13.6393 19.2163 13.7361 19.3328 13.8084 19.4659C13.8807 19.5991 13.9269 19.746 13.9445 19.8982C13.962 20.0504 13.9504 20.2048 13.9104 20.3522C13.8704 20.4996 13.8028 20.6371 13.7116 20.7566C13.6204 20.8762 13.5074 20.9753 13.3793 21.0482L11.4837 22.189C11.315 22.2953 11.1221 22.3514 10.9254 22.3514C10.7288 22.3514 10.5358 22.2953 10.3671 22.189L8.47157 21.0482C8.22011 20.8968 8.03606 20.6466 7.95984 20.3525C7.88363 20.0583 7.92149 19.7443 8.06514 19.4796Z" fill="#005FF9"/>
<path d="M35.3989 20.28L34.2253 16.3493H28.8159L27.6423 20.28H24.3347L29.6801 4.07443H33.4677L38.8238 20.28H35.3989ZM31.4832 7.17405L29.5094 13.8113H33.5318L31.558 7.17405H31.4832ZM43.6249 6.72484V11.8908H46.3991C48.0209 11.8908 48.9703 10.9138 48.9703 9.30783C48.9703 7.73557 47.9673 6.72484 46.367 6.72484H43.6249ZM43.6249 14.3503V20.28H40.4028V4.07443H46.7085C50.2508 4.07443 52.2779 6.03976 52.2779 9.24046C52.2779 11.3181 51.2537 13.115 49.4825 13.8449L52.726 20.28H49.0771L46.207 14.3503H43.6249ZM54.4011 4.07443H60.2799C64.8998 4.07443 67.6205 6.9719 67.6205 12.1155C67.6205 17.259 64.8998 20.28 60.2799 20.28H54.4011V4.07443ZM57.6233 6.87082V17.4724H59.8957C62.7766 17.4724 64.3343 15.6306 64.3343 12.1267C64.3343 8.73508 62.734 6.87082 59.8957 6.87082H57.6233ZM76.6466 3.79367C81.2026 3.79367 84.0727 7.01682 84.0727 12.1828C84.0727 17.3376 81.2026 20.5608 76.6466 20.5608C72.0802 20.5608 69.2208 17.3376 69.2208 12.1828C69.2208 7.01682 72.0802 3.79367 76.6466 3.79367ZM76.6466 6.62375C74.1288 6.62375 72.507 8.78 72.507 12.1828C72.507 15.5744 74.1181 17.7195 76.6466 17.7195C79.1647 17.7195 80.7758 15.5744 80.7758 12.1828C80.7758 8.78 79.1647 6.62375 76.6466 6.62375Z" fill="#005FF9"/>
</svg>
