<svg width="24" height="24" viewBox="0 0 24 24" fill="none" xmlns="http://www.w3.org/2000/svg">
    <path fill-rule="evenodd" clip-rule="evenodd"
          d="M4.79998 4.79999C4.79998 4.16347 5.05283 3.55302 5.50292 3.10294C5.95301 2.65285 6.56346 2.39999 7.19998 2.39999H16.8C17.4365 2.39999 18.0469 2.65285 18.497 3.10294C18.9471 3.55302 19.2 4.16347 19.2 4.79999V19.2C19.5182 19.2 19.8235 19.3264 20.0485 19.5515C20.2735 19.7765 20.4 20.0817 20.4 20.4C20.4 20.7183 20.2735 21.0235 20.0485 21.2485C19.8235 21.4736 19.5182 21.6 19.2 21.6H15.6C15.2817 21.6 14.9765 21.4736 14.7514 21.2485C14.5264 21.0235 14.4 20.7183 14.4 20.4V18C14.4 17.6817 14.2735 17.3765 14.0485 17.1515C13.8235 16.9264 13.5182 16.8 13.2 16.8H10.8C10.4817 16.8 10.1765 16.9264 9.95145 17.1515C9.7264 17.3765 9.59998 17.6817 9.59998 18V20.4C9.59998 20.7183 9.47355 21.0235 9.2485 21.2485C9.02346 21.4736 8.71824 21.6 8.39998 21.6H4.79998C4.48172 21.6 4.17649 21.4736 3.95145 21.2485C3.7264 21.0235 3.59998 20.7183 3.59998 20.4C3.59998 20.0817 3.7264 19.7765 3.95145 19.5515C4.17649 19.3264 4.48172 19.2 4.79998 19.2V4.79999ZM8.39998 5.99999H10.8V8.39999H8.39998V5.99999ZM10.8 10.8H8.39998V13.2H10.8V10.8ZM13.2 5.99999H15.6V8.39999H13.2V5.99999ZM15.6 10.8H13.2V13.2H15.6V10.8Z"
          fill="currentColor"/>
</svg>
