<svg viewBox="0 0 50 50" fill="none" xmlns="http://www.w3.org/2000/svg">
    <path d="M7.5 2.5C6.83696 2.5 6.20107 2.76339 5.73223 3.23223C5.26339 3.70107 5 4.33696 5 5C5 5.66304 5.26339 6.29893 5.73223 6.76777C6.20107 7.23661 6.83696 7.5 7.5 7.5H10.55L11.3125 10.555C11.3201 10.5902 11.3284 10.6252 11.3375 10.66L14.7325 24.235L12.5 26.465C9.35 29.615 11.58 35 16.035 35H37.5C38.163 35 38.7989 34.7366 39.2678 34.2678C39.7366 33.7989 40 33.163 40 32.5C40 31.837 39.7366 31.2011 39.2678 30.7322C38.7989 30.2634 38.163 30 37.5 30H16.035L18.535 27.5H35C35.4642 27.4998 35.9191 27.3703 36.3138 27.1261C36.7086 26.8819 37.0275 26.5327 37.235 26.1175L44.735 11.1175C44.9254 10.7364 45.0153 10.3131 44.9961 9.88752C44.977 9.46197 44.8494 9.04838 44.6255 8.68599C44.4016 8.32359 44.0888 8.02442 43.7168 7.81686C43.3448 7.6093 42.926 7.50023 42.5 7.5H15.7L14.925 4.3925C14.7896 3.85188 14.4774 3.37202 14.038 3.02914C13.5987 2.68626 13.0573 2.50001 12.5 2.5H7.5ZM40 41.25C40 42.2446 39.6049 43.1984 38.9017 43.9016C38.1984 44.6049 37.2446 45 36.25 45C35.2554 45 34.3016 44.6049 33.5983 43.9016C32.8951 43.1984 32.5 42.2446 32.5 41.25C32.5 40.2554 32.8951 39.3016 33.5983 38.5983C34.3016 37.8951 35.2554 37.5 36.25 37.5C37.2446 37.5 38.1984 37.8951 38.9017 38.5983C39.6049 39.3016 40 40.2554 40 41.25ZM16.25 45C17.2446 45 18.1984 44.6049 18.9017 43.9016C19.6049 43.1984 20 42.2446 20 41.25C20 40.2554 19.6049 39.3016 18.9017 38.5983C18.1984 37.8951 17.2446 37.5 16.25 37.5C15.2554 37.5 14.3016 37.8951 13.5983 38.5983C12.8951 39.3016 12.5 40.2554 12.5 41.25C12.5 42.2446 12.8951 43.1984 13.5983 43.9016C14.3016 44.6049 15.2554 45 16.25 45V45Z"
          fill="currentColor"/>
</svg>
