<svg width="100" height="100" viewBox="0 0 100 100" fill="none" xmlns="http://www.w3.org/2000/svg">
<g clip-path="url(#clip0_389_1363)">
<path d="M50 100C77.6142 100 100 77.6142 100 50C100 22.3858 77.6142 0 50 0C22.3858 0 0 22.3858 0 50C0 77.6142 22.3858 100 50 100Z" fill="url(#paint0_linear_389_1363)"/>
<path d="M74.3359 28.7696L65.4102 73.7891C65.4102 73.7891 64.1602 76.9141 60.7227 75.4102L40.1172 59.6094L32.6172 55.9961L20 51.7579C20 51.7579 18.0664 51.0743 17.8711 49.5704C17.6758 48.0665 20.0586 47.2657 20.0586 47.2657L70.2148 27.5977C70.2148 27.5782 74.3359 25.7618 74.3359 28.7696Z" fill="white"/>
<path d="M38.5156 73.2812C38.5156 73.2812 37.9102 73.2226 37.168 70.8594C36.4258 68.4961 32.6172 55.9961 32.6172 55.9961L62.9102 36.7578C62.9102 36.7578 64.668 35.7031 64.5898 36.7578C64.5898 36.7578 64.9023 36.9531 63.9648 37.8125C63.0273 38.6914 40.1758 59.2383 40.1758 59.2383" fill="#D2E4F0"/>
<path d="M48.0078 65.6641L39.8633 73.1055C39.8633 73.1055 39.2188 73.5938 38.5352 73.2813L40.0977 59.4727" fill="#B5CFE4"/>
</g>
<defs>
<linearGradient id="paint0_linear_389_1363" x1="50" y1="0" x2="50" y2="99.6352" gradientUnits="userSpaceOnUse">
<stop stop-color="#41BCE7"/>
<stop offset="1" stop-color="#22A6DC"/>
</linearGradient>
<clipPath id="clip0_389_1363">
<rect width="100" height="100" fill="white"/>
</clipPath>
</defs>
</svg>
