<svg width="24" height="24" viewBox="0 0 24 24" fill="none" xmlns="http://www.w3.org/2000/svg">
    <path d="M9.6 19.8C9.6 20.2774 9.41036 20.7352 9.07279 21.0728C8.73523 21.4104 8.27739 21.6 7.8 21.6C7.32261 21.6 6.86477 21.4104 6.52721 21.0728C6.18964 20.7352 6 20.2774 6 19.8C6 19.3226 6.18964 18.8648 6.52721 18.5272C6.86477 18.1896 7.32261 18 7.8 18C8.27739 18 8.73523 18.1896 9.07279 18.5272C9.41036 18.8648 9.6 19.3226 9.6 19.8ZM18 19.8C18 20.2774 17.8104 20.7352 17.4728 21.0728C17.1352 21.4104 16.6774 21.6 16.2 21.6C15.7226 21.6 15.2648 21.4104 14.9272 21.0728C14.5896 20.7352 14.4 20.2774 14.4 19.8C14.4 19.3226 14.5896 18.8648 14.9272 18.5272C15.2648 18.1896 15.7226 18 16.2 18C16.6774 18 17.1352 18.1896 17.4728 18.5272C17.8104 18.8648 18 19.3226 18 19.8Z"
          fill="currentColor"/>
    <path d="M3.60002 4.79999C3.28176 4.79999 2.97654 4.92642 2.7515 5.15146C2.52645 5.3765 2.40002 5.68173 2.40002 5.99999V18C2.40002 18.3182 2.52645 18.6235 2.7515 18.8485C2.97654 19.0736 3.28176 19.2 3.60002 19.2H4.86002C4.99773 18.5218 5.36566 17.9121 5.90147 17.4742C6.43728 17.0362 7.10801 16.797 7.80002 16.797C8.49204 16.797 9.16277 17.0362 9.69858 17.4742C10.2344 17.9121 10.6023 18.5218 10.74 19.2H12C12.3183 19.2 12.6235 19.0736 12.8486 18.8485C13.0736 18.6235 13.2 18.3182 13.2 18V5.99999C13.2 5.68173 13.0736 5.3765 12.8486 5.15146C12.6235 4.92642 12.3183 4.79999 12 4.79999H3.60002ZM16.8 8.39999C16.4818 8.39999 16.1765 8.52642 15.9515 8.75146C15.7265 8.9765 15.6 9.28173 15.6 9.59999V16.86C15.9861 16.7811 16.384 16.7791 16.7708 16.854C17.1577 16.9289 17.5261 17.0793 17.8548 17.2966C18.1835 17.5139 18.4662 17.7939 18.6868 18.1204C18.9073 18.447 19.0613 18.8139 19.14 19.2H20.4C20.7183 19.2 21.0235 19.0736 21.2486 18.8485C21.4736 18.6235 21.6 18.3182 21.6 18V12C21.6 11.6818 21.4735 11.3766 21.2484 11.1516L18.8484 8.75159C18.6234 8.52653 18.3183 8.40006 18 8.39999H16.8Z"
          fill="currentColor"/>
</svg>
